<svg version="1.1" id="レイヤー_1" xmlns="http://www.w3.org/2000/svg" x="0" y="0" viewBox="0 0 100 100" style="enable-background:new 0 0 100 100" xml:space="preserve"><style>.st2{fill:#ec3ba0}.st3{fill:#fefefe}.st4{fill:#a6e4fe}.st5{fill:#fdf5e5}.st7{fill:#5191ac}</style><path d="M23.193 64.122c-1.801-.012-3.603-.027-5.404-.034-.483-.002-.763-.096-.926-.679a36.847 36.847 0 0 1-1.147-14.29c.574-4.999 2.159-9.65 4.664-13.993a32.93 32.93 0 0 1 5.039-6.661c4.996-5.079 10.957-8.439 17.98-9.808 3.131-.61 6.298-.81 9.48-.485 6.866.7 12.986 3.212 18.324 7.599 5.112 4.201 8.703 9.459 10.904 15.689 1.133 3.208 1.735 6.51 1.943 9.899.261 4.266-.261 8.429-1.495 12.514-.147.488-.35.644-.891.605-1.068-.078-2.144-.032-3.217-.037-.11-.084-.12-.203-.115-.327.082-2.009-1.027-3.292-2.653-4.195-1.625-.903-3.424-.848-5.21-.764-2.551.12-4.979.798-7.357 1.672-1.971.725-3.715 1.864-5.409 3.082-.327.235-.627.519-1.057.564-2.914.083-5.827.023-8.74.034-1.254.004-2.508.042-3.761-.026-.725-.136-1.27-.608-1.857-1.002-.167-.232-.414-.326-.681-.382-1.928-1.024-3.978-1.72-6.107-2.151-2.906-.588-5.814-.821-8.658.348-.525.216-1.033.467-1.539.722a3.77 3.77 0 0 0-1.504 1.378c-.165.266-.264.604-.606.728z" style="fill:#f6b42e"/><path d="m42.337 63.362 1.53.948c.589.216.988.691 1.453 1.075a20.345 20.345 0 0 1 5.39 6.848c.068.139.082.36.273.36.182 0 .236-.207.293-.352.361-.923.801-1.811 1.219-2.708a14.426 14.426 0 0 1 3.707-4.88c.175-.151.389-.208.581-.316 1.123-.752 2.213-1.552 3.372-2.251 1.567-.945 3.26-1.564 4.996-2.114a21.522 21.522 0 0 1 7.399-.997c2.317.091 4.283.869 5.496 3.035.44.786.576 1.571.402 2.433-.552 1.7-1.89 2.711-3.238 3.726-2.832 2.133-6.051 3.474-9.381 4.563-1.652.54-3.388.738-5.116.936-1.545.177-3.078.448-4.645.373-1.273-.06-2.542-.117-3.785-.432-.206-.052-.473-.155-.63.036-.152.184-.01.417.058.629.721 2.271 1.223 4.589 1.588 6.944.399 2.572.207 5.131-.16 7.669-.385 2.664-1.171 5.24-2.211 7.727a2.288 2.288 0 0 1-1.251 1.262c-.341.141-.709.216-1.006-.108-.299-.327-.158-.65.077-.925 1.14-1.334 1.817-2.917 2.35-4.549 1.054-3.226 1.67-6.547 1.402-9.945-.139-1.759-.512-3.511-.948-5.236-.227-.899-.409-1.809-.608-2.714-.104-.473-.197-.711-.862-.56-2.581.588-5.18.891-7.864.745-3.511-.19-10.68-2.16-10.919-2.252l-.001.002a20.924 20.924 0 0 1-2.43-1.093c-1.124-.638-2.265-1.251-3.271-2.076-.124-.168-.997-.999-1.225-1.326-.714-1.137-1.195-2.349-1.178-3.718.765-1.89 2.463-2.585 4.186-3.2 2.326-.83 4.702-.726 7.106-.324 2.549.426 4.966 1.2 7.257 2.385.178.157.432.197.594.38z" style="fill:#61ca83"/><path class="st2" d="M42.529 16.219c-.192.001-.443.086-.556-.123-.102-.189.122-.317.206-.468 1.289-2.312 2.585-4.619 3.874-6.931 1.142-2.046 2.277-4.096 3.417-6.144.409-.734.594-.738 1.036.014.912 1.55 1.811 3.106 2.712 4.662 1.549 2.675 3.095 5.352 4.641 8.029.118.205.356.409.245.65-.142.309-.473.144-.715.145-2.447.012-12.353.153-14.86.166zM25.328 16.368c0-2.427-.004-4.854.005-7.281.001-.287-.158-.669.147-.841.285-.16.575.097.831.248 2.752 1.62 5.501 3.245 8.251 4.867 1.392.821 2.786 1.639 4.178 2.46.156.092.301.203.456.298.367.223.252.368-.055.544-2.682 1.534-5.36 3.074-8.036 4.618-1.715.99-3.425 1.988-5.136 2.985-.156.091-.316.242-.495.171-.227-.09-.101-.319-.101-.485-.005-2.528-.031-7.584-.045-7.584zM85.588 44.175c-.007-.189-.107-.442.113-.552.185-.092.316.129.471.21 2.685 1.406 5.367 2.816 8.053 4.222 1.79.937 3.585 1.866 5.375 2.802.541.283.539.531-.043.897-1.214.763-2.442 1.505-3.664 2.255-2.566 1.574-5.132 3.149-7.699 4.722-.499.306-1.009.594-1.503.906-.397.25-.569.237-.554-.311.031-1.151-.401-11.252-.549-15.151zM75.184 23.888c.002.398-.091.508-.495.294-3.249-1.722-6.507-3.425-9.762-5.135-1.27-.667-2.54-1.334-3.806-2.007-.247-.131-.504-.267-.081-.534a2546.39 2546.39 0 0 0 7.684-4.854c1.689-1.071 3.37-2.154 5.061-3.221.223-.141.431-.479.733-.285.274.175.245.53.253.834.046 1.596.407 13.615.413 14.908zM85.323 26.75c2.507.061 5.015.121 7.522.184.742.019.86.235.449.886-1.584 2.514-3.178 5.022-4.77 7.531-1.048 1.651-2.094 3.302-3.154 4.944-.122.189-.176.516-.471.493-.257-.02-.275-.324-.375-.511a9134.586 9134.586 0 0 1-7.027-13.095c-.103-.191-.302-.413-.185-.609.134-.225.406-.035.613-.03 2.466.063 4.932.137 7.398.207zM15.083 26.167c2.407 0 4.813-.002 7.22.003.233.001.532-.11.682.115.171.258-.134.431-.245.627-2.038 3.607-4.084 7.209-6.129 10.812-.439.773-.87 1.549-1.321 2.315-.131.222-.243.503-.514.031-1.417-2.471-2.866-4.923-4.314-7.376-1.14-1.931-2.296-3.854-3.444-5.781-.35-.588-.261-.792.436-.815.927-.03 7.629.049 7.629.069zM13.487 43.581c.384-.224.564-.197.561.332-.01 2.044.007 4.089.036 6.133.042 2.973.101 5.947.156 8.92.004.221.069.491-.155.604-.2.101-.358-.137-.528-.231-2.157-1.197-4.307-2.404-6.463-3.602C4.867 54.5 2.633 53.273.406 52.036c-.532-.296-.547-.502-.01-.847.68-.437 1.391-.824 2.092-1.228a4792.33 4792.33 0 0 0 10.999-6.38z"/><path class="st3" d="M55.57 44.66c.284-2.258 1.124-4.24 2.898-5.74 1.692-1.431 4.098-1.295 5.768.321.927.896 1.589 1.96 1.925 3.214.211.51.218 1.082.48 1.577.634 3.327.231 6.45-1.916 9.182-1.344 1.71-3.297 2.24-5.128 1.498-.022-.153.09-.217.195-.271 1.475-.757 2.152-2.097 2.545-3.598.558-2.133.458-4.25-.446-6.279-.376-.843-.846-1.624-1.701-2.14-1.38-.832-2.673-.19-3.396.587a4.828 4.828 0 0 0-.841 1.254c-.077.167-.099.417-.383.395zM44.532 43.668c.231.921.316 1.856.244 2.803-.325-.067-.274-.362-.327-.574-.252-1.009-.646-1.945-1.245-2.806-1.109-1.592-3.189-1.736-4.445-.252-.841.993-1.318 2.157-1.542 3.441-.346 1.987-.154 3.905.691 5.739.434.94 1.095 1.689 2.037 2.164.121.061.27.115.236.303-1.629.573-3.649-.139-4.832-1.769-1.941-2.675-2.415-5.679-1.84-8.876.324-1.799.978-3.465 2.309-4.779 2.222-2.196 5.131-1.952 6.999.573.552.746 1.02 1.54 1.237 2.457.209.509.216 1.081.478 1.576z"/><path class="st4" d="M40.18 54.486c-2.129-.996-2.845-2.876-3.182-5.019a9.465 9.465 0 0 1 .273-4.13c.373-1.294.957-2.493 2.144-3.275 1.3-.857 2.888-.384 3.84.829.834 1.063 1.186 2.315 1.522 3.581-.095 2.965-.877 5.622-3.393 7.485-.355.262-.742.492-1.204.529zM55.57 44.66c.454-.901.919-1.783 1.815-2.357 1.317-.843 2.89-.391 3.841.823 1.148 1.465 1.591 3.191 1.607 4.977.019 2.102-.382 4.139-1.933 5.754-.372.388-.842.61-1.302.856-1.041-.265-1.729-.995-2.324-1.819-1.111-1.54-1.692-3.27-1.819-5.166-.069-1.03-.11-2.052.115-3.068z"/><path class="st5" d="M44.532 43.668c-.073-.002-.209-.001-.209-.006-.023-.536-.325-1.024-.271-1.571.338.472.436 1.016.48 1.577zM66.641 44.032c-.073-.002-.209-.001-.209-.006-.023-.536-.325-1.024-.271-1.571.338.472.436 1.017.48 1.577z"/><path d="M42.337 63.362c-.225-.084-.471-.136-.595-.379.249.046.495.098.595.379z" style="fill:#b4be54"/><path class="st7" d="M43.324 49.97c-.045.672-.175 1.452-.682 2.134-.647.87-1.736.905-2.309-.016-.866-1.394-.913-2.878-.131-4.316.653-1.202 1.904-1.162 2.629.022.29.472.494 1.317.493 2.176zM60.098 49.842c-.061.792-.179 1.554-.666 2.224-.665.915-1.759.962-2.343.011-.859-1.397-.905-2.882-.115-4.316.659-1.196 1.917-1.149 2.625.049.368.623.464 1.322.499 2.032z"/></svg>